<svg width="24" height="24" viewBox="0 0 24 24" fill="none" xmlns="http://www.w3.org/2000/svg">
<g clip-path="url(#clip0_1_35)">
<path fill-rule="evenodd" clip-rule="evenodd" d="M18.8972 5.10563C15.0896 1.29808 8.91624 1.29813 5.10866 5.10574C1.30109 8.91334 1.30109 15.0867 5.10866 18.8943C8.91624 22.7019 15.0896 22.7019 18.8972 18.8944C20.7396 17.0733 21.7765 14.5905 21.7765 12C21.7765 9.40946 20.7396 6.9267 18.8972 5.10563V5.10563ZM6.16406 6.16594C7.51403 4.81413 9.29293 3.97507 11.1947 3.79312C11.0114 5.6948 10.1687 7.47246 8.8125 8.81812C7.46501 10.1719 5.687 11.0125 3.78562 11.1947C3.96914 9.29275 4.81026 7.51437 6.16406 6.16594V6.16594ZM3.78094 12.7013C6.08388 12.5174 8.24521 11.5162 9.87469 9.87844C11.5135 8.24948 12.5154 6.08799 12.6994 3.78469C16.703 4.11847 19.8805 7.29433 20.2162 11.2978C15.4619 11.6871 11.6873 15.4593 11.295 20.2134C7.29135 19.8797 4.1139 16.7038 3.77813 12.7003L3.78094 12.7013ZM17.8359 17.8341C16.4857 19.1855 14.7069 20.0245 12.8053 20.2069C13.1915 16.2884 16.2929 13.189 20.2116 12.8053C20.0288 14.7069 19.1887 16.4852 17.8359 17.8341V17.8341Z" fill="white"/>
</g>
<defs>
<clipPath id="clip0_1_35">
<rect width="24" height="24" fill="white"/>
</clipPath>
</defs>
</svg>
