<svg width="24" height="24" viewBox="0 0 24 24" fill="none" xmlns="http://www.w3.org/2000/svg">
<g clip-path="url(#clip0_22_155)">
<path fill-rule="evenodd" clip-rule="evenodd" d="M6 9.84375V3.75C6 3.33579 5.66421 3 5.25 3C4.83579 3 4.5 3.33579 4.5 3.75V9.84375C3.17256 10.1836 2.24412 11.3797 2.24412 12.75C2.24412 14.1203 3.17256 15.3164 4.5 15.6562V20.25C4.5 20.6642 4.83579 21 5.25 21C5.66421 21 6 20.6642 6 20.25V15.6562C7.32744 15.3164 8.25588 14.1203 8.25588 12.75C8.25588 11.3797 7.32744 10.1836 6 9.84375V9.84375ZM5.25 14.25C4.42157 14.25 3.75 13.5784 3.75 12.75C3.75 11.9216 4.42157 11.25 5.25 11.25C6.07843 11.25 6.75 11.9216 6.75 12.75C6.75 13.5784 6.07843 14.25 5.25 14.25V14.25ZM12.75 5.34375V3.75C12.75 3.33579 12.4142 3 12 3C11.5858 3 11.25 3.33579 11.25 3.75V5.34375C9.92256 5.68363 8.99412 6.87974 8.99412 8.25C8.99412 9.62026 9.92256 10.8164 11.25 11.1562V20.25C11.25 20.6642 11.5858 21 12 21C12.4142 21 12.75 20.6642 12.75 20.25V11.1562C14.0774 10.8164 15.0059 9.62026 15.0059 8.25C15.0059 6.87974 14.0774 5.68363 12.75 5.34375V5.34375ZM12 9.75C11.1716 9.75 10.5 9.07843 10.5 8.25C10.5 7.42157 11.1716 6.75 12 6.75C12.8284 6.75 13.5 7.42157 13.5 8.25C13.5 9.07843 12.8284 9.75 12 9.75V9.75ZM21.75 15.75C21.7487 14.3821 20.8239 13.1876 19.5 12.8438V3.75C19.5 3.33579 19.1642 3 18.75 3C18.3358 3 18 3.33579 18 3.75V12.8438C16.6726 13.1836 15.7441 14.3797 15.7441 15.75C15.7441 17.1203 16.6726 18.3164 18 18.6562V20.25C18 20.6642 18.3358 21 18.75 21C19.1642 21 19.5 20.6642 19.5 20.25V18.6562C20.8239 18.3124 21.7487 17.1179 21.75 15.75V15.75ZM18.75 17.25C17.9216 17.25 17.25 16.5784 17.25 15.75C17.25 14.9216 17.9216 14.25 18.75 14.25C19.5784 14.25 20.25 14.9216 20.25 15.75C20.25 16.5784 19.5784 17.25 18.75 17.25V17.25Z" fill="white"/>
</g>
<defs>
<clipPath id="clip0_22_155">
<rect width="24" height="24" fill="white"/>
</clipPath>
</defs>
</svg>
