<svg width="25" height="24" viewBox="0 0 25 24" fill="none" xmlns="http://www.w3.org/2000/svg">
<g clip-path="url(#clip0_1_140)">
<path fill-rule="evenodd" clip-rule="evenodd" d="M22.0487 19.875C20.6209 17.4066 18.4206 15.6366 15.8528 14.7975C18.4635 13.2433 19.7141 10.1364 18.9082 7.2069C18.1022 4.27741 15.4383 2.24745 12.4 2.24745C9.36166 2.24745 6.69778 4.27741 5.89181 7.2069C5.08584 10.1364 6.33644 13.2433 8.94718 14.7975C6.37937 15.6356 4.17906 17.4056 2.75124 19.875C2.6087 20.1074 2.60352 20.3989 2.73773 20.6363C2.87193 20.8736 3.12437 21.0194 3.39702 21.0171C3.66967 21.0147 3.91957 20.8646 4.04968 20.625C5.81593 17.5725 8.93781 15.75 12.4 15.75C15.8622 15.75 18.9841 17.5725 20.7503 20.625C20.8804 20.8646 21.1303 21.0147 21.403 21.0171C21.6756 21.0194 21.9281 20.8736 22.0623 20.6363C22.1965 20.3989 22.1913 20.1074 22.0487 19.875V19.875ZM7.14999 9C7.14999 6.10051 9.5005 3.75 12.4 3.75C15.2995 3.75 17.65 6.10051 17.65 9C17.65 11.8995 15.2995 14.25 12.4 14.25C9.50178 14.2469 7.15309 11.8982 7.14999 9V9Z" fill="#94ADC7"/>
</g>
<defs>
<clipPath id="clip0_1_140">
<rect width="24" height="24" fill="white" transform="translate(0.399994)"/>
</clipPath>
</defs>
</svg>
