<svg width="25" height="24" viewBox="0 0 25 24" fill="none" xmlns="http://www.w3.org/2000/svg">
<g clip-path="url(#clip0_1_133)">
<path fill-rule="evenodd" clip-rule="evenodd" d="M11.1922 14.805C13.2561 13.431 14.1769 10.8677 13.4591 8.49441C12.7414 6.12114 10.5544 4.49772 8.07498 4.49772C5.59556 4.49772 3.40855 6.12114 2.69082 8.49441C1.97308 10.8677 2.89391 13.431 4.95779 14.805C3.13951 15.4752 1.58664 16.7153 0.530919 18.3403C0.379913 18.5647 0.361466 18.8531 0.482642 19.095C0.603817 19.3368 0.845839 19.4947 1.11601 19.5081C1.38619 19.5215 1.64265 19.3884 1.78717 19.1597C3.17074 17.0317 5.53675 15.7479 8.07498 15.7479C10.6132 15.7479 12.9792 17.0317 14.3628 19.1597C14.5917 19.4999 15.0514 19.5932 15.3948 19.3692C15.7382 19.1452 15.8381 18.6869 15.619 18.3403C14.5633 16.7153 13.0105 15.4752 11.1922 14.805V14.805ZM3.94998 10.125C3.94998 7.84683 5.79681 6 8.07498 6C10.3532 6 12.2 7.84683 12.2 10.125C12.2 12.4032 10.3532 14.25 8.07498 14.25C5.79788 14.2474 3.95256 12.4021 3.94998 10.125V10.125ZM23.6506 19.3781C23.3037 19.6043 22.8391 19.5066 22.6128 19.1597C21.2308 17.0303 18.8636 15.7466 16.325 15.75C15.9108 15.75 15.575 15.4142 15.575 15C15.575 14.5858 15.9108 14.25 16.325 14.25C17.9863 14.2484 19.4845 13.2504 20.1261 11.718C20.7677 10.1855 20.4273 8.4178 19.2626 7.23312C18.0979 6.04844 16.3362 5.67805 14.7931 6.29344C14.5426 6.40171 14.2531 6.36541 14.0371 6.19864C13.8212 6.03188 13.7128 5.76096 13.7542 5.49125C13.7956 5.22154 13.9802 4.99558 14.2362 4.90125C16.9109 3.83457 19.9592 4.96001 21.299 7.50883C22.6388 10.0576 21.8374 13.2067 19.4422 14.805C21.2605 15.4752 22.8133 16.7153 23.869 18.3403C24.0953 18.6872 23.9975 19.1518 23.6506 19.3781V19.3781Z" fill="#94ADC7"/>
</g>
<defs>
<clipPath id="clip0_1_133">
<rect width="24" height="24" fill="white" transform="translate(0.199982)"/>
</clipPath>
</defs>
</svg>
