<svg width="25" height="24" viewBox="0 0 25 24" fill="none" xmlns="http://www.w3.org/2000/svg">
<g clip-path="url(#clip0_1_119)">
<path fill-rule="evenodd" clip-rule="evenodd" d="M22.55 6H20.3V5.25C20.3 4.42157 19.6284 3.75 18.8 3.75H6.8C5.97157 3.75 5.3 4.42157 5.3 5.25V6H3.05C2.22157 6 1.55 6.67157 1.55 7.5V9C1.55 11.0711 3.22893 12.75 5.3 12.75H5.64218C6.54517 15.6116 9.06452 17.6614 12.05 17.9634V20.25H9.8C9.38578 20.25 9.05 20.5858 9.05 21C9.05 21.4142 9.38578 21.75 9.8 21.75H15.8C16.2142 21.75 16.55 21.4142 16.55 21C16.55 20.5858 16.2142 20.25 15.8 20.25H13.55V17.9606C16.5444 17.6578 19.0287 15.5569 19.9325 12.75H20.3C22.3711 12.75 24.05 11.0711 24.05 9V7.5C24.05 6.67157 23.3784 6 22.55 6V6ZM5.3 11.25C4.05735 11.25 3.05 10.2426 3.05 9V7.5H5.3V10.5C5.3 10.75 5.31218 11 5.33656 11.25H5.3ZM18.8 10.4156C18.8 13.7456 16.1291 16.4756 12.8459 16.5H12.8C9.48629 16.5 6.8 13.8137 6.8 10.5V5.25H18.8V10.4156ZM22.55 9C22.55 10.2426 21.5426 11.25 20.3 11.25H20.2531C20.2839 10.9729 20.2995 10.6944 20.3 10.4156V7.5H22.55V9Z" fill="#94ADC7"/>
</g>
<defs>
<clipPath id="clip0_1_119">
<rect width="24" height="24" fill="white" transform="translate(0.799995)"/>
</clipPath>
</defs>
</svg>
